<svg width="481" height="88" viewBox="0 0 481 88" fill="none" xmlns="http://www.w3.org/2000/svg">
<path d="M57.7721 27.544C57.7721 26.2573 57.0514 26 56.6911 26H31.8287C30.0271 26 30.0271 27.93 30.0271 27.93V31.6613C30.0271 33.3339 30.988 33.7199 31.4684 33.7199H48.7639C49.4846 33.8486 50.5656 34.3632 50.5656 36.4219V53.9203C50.6857 54.4349 50.9259 55.5929 52.3672 55.5929H56.2106C56.2106 55.5929 57.7721 55.5929 57.7721 53.6629V27.544Z" fill="#1C7483"/>
<path d="M42.7586 43.627C42.8787 42.3404 42.038 42.0831 41.6776 42.0831H16.8153C15.0137 42.0831 15.0137 44.013 15.0137 44.013V47.7443C15.0137 49.417 15.9745 49.803 16.455 49.803H33.7505C34.4712 49.9316 35.5521 50.4463 35.5521 52.5049V70.0033C35.6722 70.518 35.9125 71.676 37.3538 71.676H41.1972C41.1972 71.676 42.7586 71.676 42.7586 69.746V43.627Z" fill="#1C7483"/>
<path d="M4.08367 86.2152C4.32389 86.4725 5.28475 87.2445 6.60594 85.8292L19.0972 72.4481C19.4575 72.0621 20.5385 71.1614 20.5385 72.9627V86.0865C20.6586 86.6012 20.8988 87.7592 22.3401 87.7592H26.1835C26.1835 87.7592 27.745 87.7592 27.745 85.8292V59.7102C27.745 58.4236 27.0243 58.2949 26.664 58.1663H1.80162C1.4318e-07 58.1663 0 60.0962 0 60.0962V63.8275C0 65.5002 0.960864 65.8862 1.4413 65.8862H12.9717C13.4521 65.8862 14.8934 66.0148 13.5722 67.4301L1.5614 80.5539C1.5614 80.5539 0.120108 81.9693 1.32119 83.2559L4.08367 86.2152Z" fill="#1C7483"/>
<path d="M84.024 25.656C84.024 24.776 84.464 24.0133 85.344 23.368C86.224 22.7227 87.104 22.4 87.984 22.4C88.9227 22.4 89.6267 22.84 90.096 23.72L109.016 73.44L128.024 23.72C128.493 22.84 129.197 22.4 130.136 22.4C131.016 22.4 131.896 22.7227 132.776 23.368C133.656 24.0133 134.096 24.776 134.096 25.656C134.096 25.8907 134.037 26.184 133.92 26.536L113.064 80.92C112.653 81.8 112.037 82.5333 111.216 83.12C110.395 83.7067 109.661 84 109.016 84C108.371 84 107.637 83.736 106.816 83.208C105.995 82.6213 105.349 81.8587 104.88 80.92L84.2 26.536C84.0827 26.184 84.024 25.8907 84.024 25.656ZM142.565 79.512V26.8C142.565 23.9253 143.327 22.488 144.853 22.488H190.085C190.847 22.488 191.434 22.8107 191.845 23.456C192.314 24.1013 192.549 24.864 192.549 25.744C192.549 27.9147 191.727 29 190.085 29H149.077V46.248H182.165C182.927 46.248 183.514 46.5707 183.925 47.216C184.394 47.8613 184.629 48.624 184.629 49.504C184.629 51.6747 183.807 52.76 182.165 52.76H149.077V77.488H190.085C190.847 77.488 191.434 77.8107 191.845 78.456C192.314 79.1013 192.549 79.864 192.549 80.744C192.549 82.9147 191.727 84 190.085 84H144.853C143.855 84 143.21 83.648 142.917 82.944C142.682 82.24 142.565 81.096 142.565 79.512ZM201.69 81.536V24.776C201.69 23.192 202.804 22.4 205.034 22.4C205.914 22.4 206.647 22.6053 207.234 23.016C207.879 23.4267 208.202 24.0133 208.202 24.776V77.576H237.066C237.828 77.576 238.415 77.8987 238.826 78.544C239.295 79.1893 239.53 79.952 239.53 80.832C239.53 82.944 238.708 84 237.066 84H206.794C203.391 84 201.69 83.1787 201.69 81.536ZM241.943 53.376C241.943 44.4 244.436 36.92 249.423 30.936C254.468 24.952 260.452 21.96 267.375 21.96C274.297 21.96 280.135 25.04 284.887 31.2C289.697 37.3013 292.103 44.6053 292.103 53.112C292.103 62.4987 289.756 70.0667 285.063 75.816C280.428 81.5067 274.532 84.3813 267.375 84.44C260.452 84.44 254.468 81.536 249.423 75.728C244.436 69.92 241.943 62.4693 241.943 53.376ZM248.455 53.464C248.455 60.152 250.303 65.9013 253.999 70.712C257.753 75.5227 262.212 77.928 267.375 77.928C272.479 77.928 276.791 75.5227 280.311 70.712C283.831 65.8427 285.591 60.0347 285.591 53.288C285.591 46.8347 283.801 41.0853 280.223 36.04C276.703 30.9947 272.42 28.472 267.375 28.472C262.212 28.472 257.753 31.024 253.999 36.128C250.303 41.232 248.455 47.0107 248.455 53.464ZM300.46 52.76C300.46 43.784 303.687 36.3333 310.14 30.408C316.652 24.424 324.308 21.432 333.108 21.432C338.388 21.432 343.287 23.2507 347.804 26.888C348.273 27.2987 348.508 27.8267 348.508 28.472C348.508 29.4107 348.127 30.2907 347.364 31.112C346.601 31.8747 345.809 32.256 344.988 32.256C344.401 32.256 343.903 32.0507 343.492 31.64C340.676 29.176 337.156 27.944 332.932 27.944C325.247 27.944 318.999 30.4373 314.188 35.424C309.436 40.352 307.06 46.1013 307.06 52.672C307.06 59.4187 309.407 65.3733 314.1 70.536C318.793 75.6987 325.1 78.28 333.02 78.28C338.183 78.28 342.377 76.432 345.604 72.736C346.249 72.0907 346.807 71.768 347.276 71.768C348.156 71.768 349.007 72.208 349.828 73.088C350.649 73.968 351.06 74.8187 351.06 75.64C351.06 76.168 350.855 76.6373 350.444 77.048C345.927 82.2107 340.265 84.792 333.46 84.792C326.713 84.792 320.788 83.2667 315.684 80.216C310.58 77.1067 306.767 73.176 304.244 68.424C301.721 63.6133 300.46 58.392 300.46 52.76ZM359.213 81.536V24.776C359.213 23.192 360.328 22.4 362.557 22.4C363.437 22.4 364.17 22.6053 364.757 23.016C365.402 23.4267 365.725 24.0133 365.725 24.776V81.536C365.725 82.2987 365.402 82.9147 364.757 83.384C364.112 83.7947 363.349 84 362.469 84C360.298 84 359.213 83.1787 359.213 81.536ZM373.005 25.568C373.005 24.688 373.21 23.9547 373.621 23.368C374.032 22.7227 374.618 22.4 375.381 22.4H418.853C419.616 22.4 420.202 22.7227 420.613 23.368C421.082 24.0133 421.317 24.776 421.317 25.656C421.317 27.8267 420.496 28.912 418.853 28.912H399.845V81.536C399.845 82.2987 399.522 82.9147 398.877 83.384C398.232 83.7947 397.469 84 396.589 84C394.418 84 393.333 83.1787 393.333 81.536V28.912H375.381C373.797 28.912 373.005 27.7973 373.005 25.568ZM426.363 44.928V24.864C426.421 24.1013 426.744 23.5147 427.331 23.104C427.976 22.6347 428.709 22.4 429.531 22.4C431.701 22.4 432.787 23.2213 432.787 24.864V44.136C432.787 46.8933 433.931 49.328 436.219 51.44C438.565 53.552 441.059 55.048 443.699 55.928C446.397 56.808 448.773 57.248 450.827 57.248C453.291 57.248 455.901 56.808 458.659 55.928C461.416 55.048 463.909 53.5813 466.139 51.528C468.427 49.416 469.571 46.952 469.571 44.136V24.864C469.571 23.2213 470.656 22.4 472.827 22.4C473.648 22.4 474.352 22.6347 474.939 23.104C475.584 23.5147 475.936 24.1013 475.995 24.864V44.928C475.995 49.7387 473.765 53.904 469.307 57.424C464.848 60.8853 459.861 62.9387 454.347 63.584V81.536C454.347 82.2987 454.024 82.9147 453.379 83.384C452.733 83.7947 451.971 84 451.091 84C448.92 84 447.835 83.1787 447.835 81.536V63.496C442.203 62.7333 437.216 60.6507 432.875 57.248C428.533 53.7867 426.363 49.68 426.363 44.928Z" fill="#003F4A"/>
</svg>
