<svg width="392" height="64" viewBox="0 0 392 64" fill="none" xmlns="http://www.w3.org/2000/svg">
<path d="M0.0240002 4.656C0.0240002 3.776 0.464 3.01333 1.344 2.368C2.224 1.72266 3.104 1.4 3.984 1.4C4.92267 1.4 5.62667 1.84 6.096 2.71999L25.016 52.44L44.024 2.71999C44.4933 1.84 45.1973 1.4 46.136 1.4C47.016 1.4 47.896 1.72266 48.776 2.368C49.656 3.01333 50.096 3.776 50.096 4.656C50.096 4.89066 50.0373 5.184 49.92 5.536L29.064 59.92C28.6533 60.8 28.0373 61.5333 27.216 62.12C26.3947 62.7067 25.6613 63 25.016 63C24.3707 63 23.6373 62.736 22.816 62.208C21.9947 61.6213 21.3493 60.8587 20.88 59.92L0.2 5.536C0.0826668 5.184 0.0240002 4.89066 0.0240002 4.656ZM58.5646 58.512V5.8C58.5646 2.92533 59.3273 1.48799 60.8526 1.48799H106.085C106.847 1.48799 107.434 1.81066 107.845 2.456C108.314 3.10133 108.549 3.864 108.549 4.74399C108.549 6.91466 107.727 8 106.085 8H65.0766V25.248H98.1646C98.9273 25.248 99.514 25.5707 99.9246 26.216C100.394 26.8613 100.629 27.624 100.629 28.504C100.629 30.6747 99.8073 31.76 98.1646 31.76H65.0766V56.488H106.085C106.847 56.488 107.434 56.8107 107.845 57.456C108.314 58.1013 108.549 58.864 108.549 59.744C108.549 61.9147 107.727 63 106.085 63H60.8526C59.8553 63 59.21 62.648 58.9166 61.944C58.682 61.24 58.5646 60.096 58.5646 58.512ZM117.69 60.536V3.776C117.69 2.192 118.804 1.4 121.034 1.4C121.914 1.4 122.647 1.60533 123.234 2.016C123.879 2.42666 124.202 3.01333 124.202 3.776V56.576H153.066C153.828 56.576 154.415 56.8987 154.826 57.544C155.295 58.1893 155.53 58.952 155.53 59.832C155.53 61.944 154.708 63 153.066 63H122.794C119.391 63 117.69 62.1787 117.69 60.536ZM157.943 32.376C157.943 23.4 160.436 15.92 165.423 9.936C170.468 3.952 176.452 0.959996 183.375 0.959996C190.297 0.959996 196.135 4.04 200.887 10.2C205.697 16.3013 208.103 23.6053 208.103 32.112C208.103 41.4987 205.756 49.0667 201.063 54.816C196.428 60.5067 190.532 63.3813 183.375 63.44C176.452 63.44 170.468 60.536 165.423 54.728C160.436 48.92 157.943 41.4693 157.943 32.376ZM164.455 32.464C164.455 39.152 166.303 44.9013 169.999 49.712C173.753 54.5227 178.212 56.928 183.375 56.928C188.479 56.928 192.791 54.5227 196.311 49.712C199.831 44.8427 201.591 39.0347 201.591 32.288C201.591 25.8347 199.801 20.0853 196.223 15.04C192.703 9.99466 188.42 7.472 183.375 7.472C178.212 7.472 173.753 10.024 169.999 15.128C166.303 20.232 164.455 26.0107 164.455 32.464ZM216.46 31.76C216.46 22.784 219.687 15.3333 226.14 9.408C232.652 3.424 240.308 0.431998 249.108 0.431998C254.388 0.431998 259.287 2.25066 263.804 5.888C264.273 6.29866 264.508 6.82666 264.508 7.472C264.508 8.41066 264.127 9.29067 263.364 10.112C262.601 10.8747 261.809 11.256 260.988 11.256C260.401 11.256 259.903 11.0507 259.492 10.64C256.676 8.176 253.156 6.944 248.932 6.944C241.247 6.944 234.999 9.43733 230.188 14.424C225.436 19.352 223.06 25.1013 223.06 31.672C223.06 38.4187 225.407 44.3733 230.1 49.536C234.793 54.6987 241.1 57.28 249.02 57.28C254.183 57.28 258.377 55.432 261.604 51.736C262.249 51.0907 262.807 50.768 263.276 50.768C264.156 50.768 265.007 51.208 265.828 52.088C266.649 52.968 267.06 53.8187 267.06 54.64C267.06 55.168 266.855 55.6373 266.444 56.048C261.927 61.2107 256.265 63.792 249.46 63.792C242.713 63.792 236.788 62.2667 231.684 59.216C226.58 56.1067 222.767 52.176 220.244 47.424C217.721 42.6133 216.46 37.392 216.46 31.76ZM275.213 60.536V3.776C275.213 2.192 276.328 1.4 278.557 1.4C279.437 1.4 280.17 1.60533 280.757 2.016C281.402 2.42666 281.725 3.01333 281.725 3.776V60.536C281.725 61.2987 281.402 61.9147 280.757 62.384C280.112 62.7947 279.349 63 278.469 63C276.298 63 275.213 62.1787 275.213 60.536ZM289.005 4.568C289.005 3.688 289.21 2.95467 289.621 2.368C290.032 1.72266 290.618 1.4 291.381 1.4H334.853C335.616 1.4 336.202 1.72266 336.613 2.368C337.082 3.01333 337.317 3.776 337.317 4.656C337.317 6.82666 336.496 7.912 334.853 7.912H315.845V60.536C315.845 61.2987 315.522 61.9147 314.877 62.384C314.232 62.7947 313.469 63 312.589 63C310.418 63 309.333 62.1787 309.333 60.536V7.912H291.381C289.797 7.912 289.005 6.79733 289.005 4.568ZM342.363 23.928V3.864C342.421 3.10133 342.744 2.51466 343.331 2.104C343.976 1.63466 344.709 1.4 345.531 1.4C347.701 1.4 348.787 2.22133 348.787 3.864V23.136C348.787 25.8933 349.931 28.328 352.219 30.44C354.565 32.552 357.059 34.048 359.699 34.928C362.397 35.808 364.773 36.248 366.827 36.248C369.291 36.248 371.901 35.808 374.659 34.928C377.416 34.048 379.909 32.5813 382.139 30.528C384.427 28.416 385.571 25.952 385.571 23.136V3.864C385.571 2.22133 386.656 1.4 388.827 1.4C389.648 1.4 390.352 1.63466 390.939 2.104C391.584 2.51466 391.936 3.10133 391.995 3.864V23.928C391.995 28.7387 389.765 32.904 385.307 36.424C380.848 39.8853 375.861 41.9387 370.347 42.584V60.536C370.347 61.2987 370.024 61.9147 369.379 62.384C368.733 62.7947 367.971 63 367.091 63C364.92 63 363.835 62.1787 363.835 60.536V42.496C358.203 41.7333 353.216 39.6507 348.875 36.248C344.533 32.7867 342.363 28.68 342.363 23.928Z" fill="#003F4A"/>
</svg>
